<?xml version="1.0" encoding="UTF-8"?>
<svg width="559px" height="541px" viewBox="0 0 559 541" version="1.1" xmlns="http://www.w3.org/2000/svg" xmlns:xlink="http://www.w3.org/1999/xlink">
    <!-- Generator: Sketch 52.5 (67469) - http://www.bohemiancoding.com/sketch -->
    <title>icon</title>
    <desc>Created with Sketch.</desc>
    <g id="Strukton-website" stroke="none" stroke-width="1" fill="none" fill-rule="evenodd">
        <g id="Desktop:-01-Homepage" transform="translate(-771.000000, -733.000000)" fill="#E53527">
            <g id="CONTENT-2:-Operating-Markets" transform="translate(96.000000, 733.000000)">
                <path d="M1168.90003,140.908384 C1205.5035,140.908384 1234,168.555723 1234,202.801576 L1234,252.825235 C1234,259.420039 1227.23834,266 1219.09714,266 L1025.1157,266 C988.487251,266 960,238.34524 960,202.801576 L960,14.4929832 C960,6.59387599 966.776466,0 974.920439,0 L1075.29893,0 C1083.42717,0 1090.21937,6.58088861 1090.21937,14.4929832 L1090.21937,140.908384 L1168.90003,140.908384 Z M1219.09213,275 C1227.22294,275 1234,281.580305 1234,288.168032 C1234,292.089497 1232.66198,296.074974 1229.94246,298.713405 L984.406304,537.071113 C981.712691,539.686351 978.993168,541 974.921749,541 C966.707662,540.941554 960.063847,534.484635 960,526.520174 L960,386.9292 C960,383.001242 961.352821,379.037102 964.057539,376.398671 L1065.80044,278.949296 C1068.51811,276.310866 1071.22468,275 1075.29517,275 L1219.09213,275 Z M844.5508,278.949296 L944.928953,376.398671 C947.646377,379.037102 949,383.001242 949,386.9292 L949,526.520174 C949,534.432683 943.575329,541 935.43416,541 C931.361262,541 927.291139,539.686351 924.584818,537.071113 L680.423746,298.713405 C677.717424,296.074974 675,292.089497 675,288.168032 C675,281.580305 681.776444,275 689.918539,275 L833.702384,275 C837.773431,275 841.844479,276.310866 844.5508,278.949296 Z M689.922088,266 C681.779151,266 675,259.420039 675,252.825235 L675,202.801576 C675,168.555723 704.854354,140.908384 740.11482,140.908384 L820.136924,140.908384 L820.136924,14.4929832 C820.136924,6.58088861 825.560614,0 833.701702,0 L935.434297,0 C943.575384,0 949,6.59387599 949,14.4929832 L949,202.801576 C949,238.34524 920.514059,266 885.251743,266 L689.922088,266 Z" id="icon"></path>
            </g>
        </g>
    </g>
</svg>